<?xml version="1.0" encoding="utf-8"?>
<!-- Generator: Adobe Illustrator 21.1.0, SVG Export Plug-In . SVG Version: 6.00 Build 0)  -->
<svg version="1.1" id="Layer_1" xmlns="http://www.w3.org/2000/svg" xmlns:xlink="http://www.w3.org/1999/xlink" x="0px" y="0px"
	 viewBox="0 0 1528.3 473.1" style="enable-background:new 0 0 1528.3 473.1;" xml:space="preserve">
<style type="text/css">
	.st0{fill:#0074FF;}
	.st1{fill:#D4D5D5;}
	.st2{fill:#01D9D6;}
	.st3{fill:#0000FF;}
</style>
<path class="st0" d="M554.7,208.8c0,0.6-0.4,1-1,1c-1.7,0-5.1,0-7.5,0c-20,0-29.2,14.2-29.2,33v50.7c0,0.6-0.4,1-1,1h-23.8
	c-0.6,0-1-0.4-1-1V187c0-0.6,0.4-1,1-1h23.2c0.6,0,1,0.4,1,1v15.3c5.1-11.8,17.1-17.6,31.4-17.6c2.5,0,4.7,0.3,6.1,0.5
	c0.5,0.1,0.8,0.5,0.8,1L554.7,208.8z"/>
<path class="st0" d="M1422.8,208.8c0,0.6-0.4,1-1,1c-1.7,0-5.1,0-7.5,0c-20,0-29.2,14.2-29.2,33v50.7c0,0.6-0.4,1-1,1h-23.8
	c-0.6,0-1-0.4-1-1V187c0-0.6,0.4-1,1-1h23.2c0.6,0,1,0.4,1,1v15.3c5.1-11.8,17.1-17.6,31.4-17.6c2.5,0,4.7,0.3,6.1,0.5
	c0.5,0.1,0.8,0.5,0.8,1L1422.8,208.8z"/>
<path class="st0" d="M661.3,263.1c0.5,0.2,0.8,0.7,0.7,1.3c-6.1,18.5-23.1,33.3-48.7,33.3c-29.4,0-55.5-21.4-55.5-58.1
	c0-34.3,25.4-57,52.8-57c33.4,0,53,22,53,56.3c0,3.2-0.3,6-0.5,7.4c-0.1,0.5-0.5,0.8-1,0.8l-78.5,0c0.7,16.5,13.6,28.3,29.6,28.3
	c15.1,0,23.1-7.8,26.9-18c0.2-0.5,0.7-0.8,1.2-0.6L661.3,263.1z M637.5,228.3c-0.4-12.7-8.9-24.1-26.7-24.1
	c-16.3,0-25.6,12.5-26.5,24.1H637.5z"/>
<path class="st0" d="M783.9,294.4l-22.7,0c-0.6,0-1-0.4-1-1v-13c-5.1,9.1-16.5,16.7-31.8,16.7c-31.2,0-52.1-24.5-52.1-57.2
	c0-31.2,21.2-56.8,51.7-56.8c18.9,0,28.5,8.7,31.8,15.6v-54.9c0-0.6,0.4-1,1-1h23.2c0.6,0,1,0.4,1,1v149.6
	C784.9,294,784.5,294.4,783.9,294.4z M731.2,274.4c16.9,0,28.7-14,28.7-34.7c0-20.7-11.6-33.6-28.5-33.6
	c-16.9,0-29.4,13.1-29.4,33.8S713.6,274.4,731.2,274.4z"/>
<path class="st0" d="M810.6,293.4V187c0-0.6,0.4-1,1-1h23.6c0.6,0,1,0.4,1,1v106.5c0,0.6-0.4,1-1,1h-23.6
	C811,294.4,810.6,294,810.6,293.4z"/>
<path class="st0" d="M893.7,186h21.5c0.6,0,1,0.4,1,1v20.9c0,0.6-0.4,1-1,1h-21.5v50.3c0,9.6,4.2,13.6,13.8,13.6
	c2.8,0,6-0.4,7.8-0.7c0.6-0.1,1.2,0.4,1.2,1v19.5c0,0.4-0.2,0.8-0.6,0.9c-2.1,0.8-6.8,2.2-15.2,2.2c-20,0-32.5-12-32.5-32.3v-54.6
	h-10.7c-0.6,0-1-0.4-1-1V187c0-0.6,0.4-1,1-1h12.9v-21.5c0-1.3,0.8-2.4,2-2.9l20-8.2c0.7-0.3,1.4,0.2,1.4,0.9V186z"/>
<path class="st0" d="M1080.2,293.4V143.8c0-0.6,0.4-1,1-1h23.8c0.6,0,1,0.4,1,1v149.6c0,0.6-0.4,1-1,1h-23.8
	C1080.7,294.4,1080.2,294,1080.2,293.4z"/>
<path class="st0" d="M1225.7,263.1c0.5,0.2,0.8,0.7,0.7,1.3c-6.1,18.5-23.1,33.3-48.7,33.3c-29.4,0-55.5-21.4-55.5-58.1
	c0-34.3,25.4-57,52.8-57c33.4,0,53,22,53,56.3c0,3.2-0.3,6-0.5,7.4c-0.1,0.5-0.5,0.8-1,0.8l-78.5,0c0.7,16.5,13.6,28.3,29.6,28.3
	c15.1,0,23.1-7.8,26.8-18c0.2-0.5,0.7-0.8,1.2-0.6L1225.7,263.1z M1201.9,228.3c-0.4-12.7-8.9-24.1-26.7-24.1
	c-16.3,0-25.6,12.5-26.5,24.1H1201.9z"/>
<path class="st0" d="M1275.4,232.3l27.8-4.2c6.2-0.9,8-4,8-7.8c0-9.1-6.2-16.5-20.5-16.5c-13.1,0-20.6,8.1-22.1,18.5
	c-0.1,0.6-0.6,1-1.2,0.9l-21.6-4.9c-0.5-0.1-0.8-0.6-0.8-1.1c2.4-18.3,19.3-34.5,45.5-34.5c33.4,0,46.1,18.9,46.1,40.5v70.3
	c0,0.6-0.4,1-1,1h-21.8c-0.6,0-1-0.4-1-1v-12.8c-5.1,8.2-15.8,17.1-33.4,17.1c-22.7,0-36.7-15.6-36.7-32.7
	C1242.7,245.6,1256.9,234.9,1275.4,232.3z M1311.2,249.4v-4.9l-28.3,4.2c-8,1.3-14.5,5.8-14.5,14.7c0,7.3,5.6,14,15.8,14
	C1298.8,277.5,1311.2,270.6,1311.2,249.4z"/>
<path class="st0" d="M452.4,255.6c-0.5-0.2-1,0.1-1.2,0.6c-3.1,8-10.9,17.9-26.4,17.9c-16.3,0-30.3-12.2-30.3-34.1
	s14-33.6,29.8-33.6c14.3,0,21.7,8,25,16.4c0.2,0.5,0.7,0.7,1.2,0.6l22-6c0.5-0.1,0.9-0.7,0.7-1.3c-5.1-16.7-21-33.6-49.1-33.6
	c-31.2,0-55.5,24-55.5,57.5c0,33,24.3,57.7,56.1,57.7c27.9,0,44-17.7,49.5-34.3c0.2-0.5-0.1-1.1-0.7-1.3L452.4,255.6z"/>
<path class="st0" d="M452.4,255.6c-0.5-0.2-1,0.1-1.2,0.6c-3.1,8-10.9,17.9-26.4,17.9c-16.3,0-30.3-12.2-30.3-34.1
	s14-33.6,29.8-33.6c14.3,0,21.7,8,25,16.4c0.2,0.5,0.7,0.7,1.2,0.6l22-6c0.5-0.1,0.9-0.7,0.7-1.3c-5.1-16.7-21-33.6-49.1-33.6
	c-31.2,0-55.5,24-55.5,57.5c0,33,24.3,57.7,56.1,57.7c27.9,0,44-17.7,49.5-34.3c0.2-0.5-0.1-1.1-0.7-1.3L452.4,255.6z"/>
<path class="st0" d="M1041.5,255.6c-0.5-0.2-1,0.1-1.2,0.6c-3.1,8-10.9,17.9-26.4,17.9c-16.3,0-30.3-12.2-30.3-34.1
	s14-33.6,29.8-33.6c14.3,0,21.7,8,25,16.4c0.2,0.5,0.7,0.7,1.2,0.6c3.7-1,18.1-4.9,22-6c0.5-0.1,0.9-0.7,0.7-1.2
	c-5.1-16.7-21-33.6-49.1-33.6c-31.2,0-55.5,24-55.5,57.5c0,33,24.3,57.7,56.1,57.7c27.9,0,44-17.7,49.5-34.3
	c0.2-0.5-0.1-1.1-0.7-1.3L1041.5,255.6z"/>
<path class="st0" d="M823.3,142.8c8.1,0,14.7,6.6,14.7,14.7s-6.6,14.5-14.7,14.5c-7.9,0-14.5-6.4-14.5-14.5S815.4,142.8,823.3,142.8
	z"/>
<g>
	<path class="st1" d="M293.9,135.7c-0.1-0.1-0.2-0.1-0.3-0.2C293.7,135.6,293.8,135.6,293.9,135.7L293.9,135.7z"/>
	<path class="st2" d="M293.9,135.7L293.9,135.7c-0.1-0.1-0.2-0.2-0.3-0.2c-19.2-12.8-42.2-20.2-66.9-20.2
		c-66.8,0-120.9,54.1-120.9,120.9c0,0.1,0,0.1,0,0.2c0,0.1,0,0.2,0,0.3c0.1,14.4,11.8,26,26.2,26c14.5,0,26.2-11.7,26.2-26.2
		c0-0.1,0-0.2,0-0.3l0,0c0-37.8,30.7-68.5,68.5-68.5c14.1,0,27.2,4.3,38.1,11.6l0,0c4.2,2.8,9.1,4.4,14.5,4.4
		c14.5,0,26.2-11.7,26.2-26.2C305.5,148.4,300.9,140.4,293.9,135.7z M254.9,147.9C254.9,147.9,254.9,147.9,254.9,147.9L254.9,147.9
		C254.9,147.9,254.9,147.9,254.9,147.9z M254.2,150.2C254.2,150.2,254.2,150.2,254.2,150.2C254.2,150.2,254.2,150.2,254.2,150.2z"/>
</g>
<g>
	<path class="st1" d="M293.9,337.4c-0.1,0.1-0.2,0.1-0.3,0.2C293.7,337.5,293.8,337.4,293.9,337.4L293.9,337.4z"/>
	<path class="st0" d="M305.5,315.6c0-14.5-11.7-26.2-26.2-26.2c-5.4,0-10.4,1.6-14.5,4.4l0,0c-10.9,7.3-24,11.6-38.1,11.6
		c-37.8,0-68.5-30.7-68.5-68.5c0,0,0-0.2,0-0.3c0-14.5-11.7-26.2-26.2-26.2c-14.4,0-26.1,11.6-26.2,26c0,0.1,0,0.2,0,0.3
		c0,0.1,0,0.1,0,0.2c0,66.8,54.1,120.9,120.9,120.9c24.7,0,47.8-7.4,66.9-20.2c0.1-0.1,0.2-0.1,0.3-0.2l0,0
		C300.9,332.6,305.5,324.7,305.5,315.6z"/>
</g>
<circle class="st3" cx="132" cy="236.5" r="26.2"/>
<g>
</g>
<g>
</g>
<g>
</g>
<g>
</g>
<g>
</g>
<g>
</g>
<g>
</g>
<g>
</g>
<g>
</g>
<g>
</g>
<g>
</g>
<g>
</g>
<g>
</g>
<g>
</g>
<g>
</g>
</svg>
